<?xml version="1.0" standalone="no"?><!DOCTYPE svg PUBLIC "-//W3C//DTD SVG 1.1//EN" "http://www.w3.org/Graphics/SVG/1.1/DTD/svg11.dtd"><svg t="1615022392450" class="icon" viewBox="0 0 1024 1024" version="1.1" xmlns="http://www.w3.org/2000/svg" p-id="1902" width="32" height="32" xmlns:xlink="http://www.w3.org/1999/xlink"><defs><style type="text/css"></style></defs><path d="M513.69 520.704c-126.157 0-228.762-102.605-228.762-228.762S387.533 63.181 513.69 63.181 742.45 165.786 742.45 291.942 639.846 520.704 513.69 520.704z m0-396.083c-92.263 0-167.322 75.059-167.322 167.321s75.06 167.322 167.322 167.322 167.321-75.06 167.321-167.322-75.059-167.321-167.321-167.321z" fill="#2c2c2c" p-id="1903"></path><path d="M513.69 424.448c-35.38 0-68.66-13.773-93.696-38.81-11.981-11.98-11.981-31.436 0-43.468 11.98-11.981 31.436-11.981 43.468 0 13.415 13.414 31.232 20.787 50.228 20.787s36.812-7.373 50.227-20.787c11.98-11.981 31.437-11.981 43.469 0 11.98 11.98 11.98 31.436 0 43.468-25.037 24.986-58.317 38.81-93.696 38.81z" fill="#2c2c2c" p-id="1904"></path><path d="M739.891 947.66H287.54c-109.977 0-199.424-89.446-199.424-199.423s89.447-199.424 199.424-199.424h452.352c109.978 0 199.424 89.446 199.424 199.424S849.818 947.66 739.891 947.66zM287.54 610.305c-76.083 0-137.984 61.9-137.984 137.984s61.901 137.984 137.984 137.984h452.352c76.083 0 137.984-61.9 137.984-137.984s-61.9-137.984-137.984-137.984H287.54z" fill="#2c2c2c" p-id="1905"></path></svg>