<?xml version="1.0" standalone="no"?><!DOCTYPE svg PUBLIC "-//W3C//DTD SVG 1.1//EN" "http://www.w3.org/Graphics/SVG/1.1/DTD/svg11.dtd"><svg t="1615022454922" class="icon" viewBox="0 0 1024 1024" version="1.1" xmlns="http://www.w3.org/2000/svg" p-id="2579" width="32" height="32" xmlns:xlink="http://www.w3.org/1999/xlink"><defs><style type="text/css"></style></defs><path d="M750.182 492.493H479.59c-16.947 0-30.72-13.773-30.72-30.72s13.773-30.72 30.72-30.72h270.592c16.948 0 30.72 13.773 30.72 30.72s-13.772 30.72-30.72 30.72z" fill="#d81e06" p-id="2580"></path><path d="M966.349 338.483c4.352-20.582-0.717-41.779-13.978-58.163a69.268 69.268 0 0 0-53.965-25.754H309.965l-9.421-79.104-0.307-2.099c-7.475-39.321-41.933-67.84-81.92-67.84H96.102c-16.947 0-30.72 13.773-30.72 30.72s13.773 30.72 30.72 30.72h122.215c10.24 0 19.097 7.117 21.401 17.05l60.16 505.19 0.308 2.1c1.587 8.447 4.505 16.332 8.396 23.603-40.038 17.408-68.147 57.344-68.147 103.73 0 62.362 50.74 113.05 113.05 113.05s113.05-50.739 113.05-113.05c0-21.81-6.247-42.188-16.948-59.494h296.346c-10.752 17.306-16.947 37.684-16.947 59.495 0 62.361 50.739 113.05 113.05 113.05s113.049-50.74 113.049-113.05c0-47.667-29.645-88.474-71.424-105.114a81.486 81.486 0 0 0 7.27-20.429l75.418-354.61z m-67.891-22.477c3.174 0 5.12 1.639 6.246 2.97 1.075 1.331 2.253 3.635 1.587 6.707l-75.315 354.663a22.057 22.057 0 0 1-21.453 17.408H382.106a22.016 22.016 0 0 1-21.402-17.05l-43.418-364.698h581.172zM353.536 870.298c-28.467 0-51.61-23.143-51.61-51.61s23.143-51.61 51.61-51.61 51.61 23.143 51.61 51.61-23.143 51.61-51.61 51.61z m488.602 0c-28.468 0-51.61-23.143-51.61-51.61s23.142-51.61 51.61-51.61 51.61 23.143 51.61 51.61-23.143 51.61-51.61 51.61z" fill="#d81e06" p-id="2581"></path></svg>