<?xml version="1.0" standalone="no"?><!DOCTYPE svg PUBLIC "-//W3C//DTD SVG 1.1//EN" "http://www.w3.org/Graphics/SVG/1.1/DTD/svg11.dtd"><svg t="1615022295850" class="icon" viewBox="0 0 1024 1024" version="1.1" xmlns="http://www.w3.org/2000/svg" p-id="913" width="32" height="32" xmlns:xlink="http://www.w3.org/1999/xlink"><defs><style type="text/css"></style></defs><path d="M654.336 941.926c-16.947 0-30.72-13.772-30.72-30.72v-204.39c0-37.018-23.45-68.25-51.2-68.25H463.718c-27.75 0-51.2 31.232-51.2 68.25v204.39c0 16.948-13.772 30.72-30.72 30.72s-30.72-13.772-30.72-30.72v-204.39c0-71.526 50.535-129.69 112.64-129.69h108.698c62.106 0 112.64 58.164 112.64 129.69v204.39c0 16.948-13.773 30.72-30.72 30.72z" fill="#2c2c2c" p-id="914"></path><path d="M839.475 955.085H196.66c-60.672 0-110.08-49.357-110.08-110.08V424.909c0-58.47 28.007-114.227 74.957-149.043 0.41-0.308 0.768-0.564 1.178-0.82L453.018 79.923c38.963-28.518 90.982-28.518 129.996 0l290.304 195.123c0.41 0.256 0.82 0.564 1.178 0.82 46.95 34.867 74.957 90.572 74.957 149.043v420.096c0.051 60.723-49.306 110.08-109.978 110.08zM197.683 325.58a124.739 124.739 0 0 0-49.613 99.328v420.096c0 26.829 21.812 48.64 48.64 48.64h642.765c26.829 0 48.64-21.811 48.64-48.64V424.909c0-38.912-18.534-75.981-49.613-99.328L548.301 130.509c-0.41-0.256-0.768-0.563-1.178-0.82-17.357-12.902-40.653-12.85-58.01 0-0.409 0.308-0.767 0.564-1.177 0.82L197.683 325.58z" fill="#2c2c2c" p-id="915"></path></svg>